<svg xmlns="http://www.w3.org/2000/svg" width="1920" height="1920" viewBox="0 0 1920 1920">
  <defs>
    <style>
      .cls-1 {
        fill-rule: evenodd;
      }
    </style>
  </defs>
  <path id="Stalker_Fan_Club" data-name="Stalker Fan Club" class="cls-1" d="M385.484,458.292l-0.7-8.382-19.558-4.89v-2.794l5.588-8.382V431.05q-14.668,5.6-16.764,13.97l-2.794-2.794-11.176,2.794-16.764-2.794L300.965,453.4l2.794-2.794L284.2,408.7H267.437V403.11l-16.764-5.588-16.764,5.588-22.352-5.588Q198.984,408.7,186.411,408.7H175.235q-3.5,19.563-8.382,19.558l-8.382,69.85h2.794l-2.794,11.176q5.583,13.981,5.588,64.262v8.382h5.588v2.794l-2.794,2.794q15.357,0,22.352,8.382L192,584.72h2.794l2.794,2.794v-5.588h8.382l2.794,2.794,2.794-2.794h2.794l2.794,2.794,13.97-5.588,11.176,8.382h-13.97l2.794,8.382q6.286-5.583,19.558-5.588l-5.588-8.382h8.382v2.794l-2.794,2.794h2.794l13.97-8.382h2.794l2.794,2.794v-5.588q19.548,6.287,19.558,11.176v2.794l-13.97,13.97V598.69l2.794-2.794h-2.794V593.1l2.794-2.794v-2.794h-5.588l-2.794,8.382v2.794l2.794,2.794h-8.382V598.69l2.794-2.794v-5.588h-5.588V593.1q-13.98,3.5-13.97,30.734l2.794,13.97q13.965,0,13.97,8.382h2.794V640.6h5.588v5.588h2.794q0-8.382,19.558-8.382,5.583,0,8.382-33.528-4.894,0-8.382-19.558l2.794-30.734H270.231l-36.322,5.588q-8.382,0-8.382-5.588-13.98,0-13.97-19.558l5.588-39.116-5.588-22.352,2.794-27.94h8.382l2.794,2.794V445.02l2.794-2.794,13.97,5.588,2.794-2.794h2.794l2.794,33.528v44.7h5.588l13.97-2.794L287,523.252h13.97q0-11.164,5.588-11.176h11.176l2.794,2.794v-2.794q27.93,0,27.94-5.588L328.905,500.9v2.794l-13.97-5.588h-2.794q0,8.382,8.382,8.382v2.794h-2.794l-13.97-2.794v-44.7l-2.794-2.794h13.97l13.97,2.794,2.794-2.794,2.794,2.794,5.588-5.588,22.352,5.588V458.99h2.794l2.794,2.794L376.4,456.2h5.588Zm-31.433,53.784h2.794l5.588-5.588h-8.382v5.588ZM219.939,587.514l2.794,16.764h2.794l5.588-5.588V595.9q-8.382,0-8.382-11.176h-2.794v2.794Zm-33.528,19.558,2.794-2.794,8.382,5.588h2.794L192,601.484h-5.588v5.588Zm13.97,5.588,11.176-2.794v-2.794l-2.794-2.794Zm97.79,33.528v2.794h-2.794l-2.794-2.794-2.794,8.382L287,651.776,284.2,654.57l-19.558-5.588-8.382,2.794L247.879,685.3l2.794,13.97,2.794-2.794,2.794,2.794,8.382-2.794h2.794q0,8.382-13.97,8.382V724.42q0,19.563,5.588,30.734l-2.794,11.176-8.382,8.382v8.382l2.794,2.794-2.794,2.794,2.794,19.558h19.558l2.794,2.794,27.94-8.382V777.506l-2.794-2.794,2.794-2.794h-5.588v-2.794h8.382v-5.588l-13.97,2.794L287,757.948l-25.146,5.588h-2.794q5.583-12.573,11.176-13.97v5.588l33.528-2.794,2.794-13.97-2.794-2.794v-27.94l-5.588-5.588h-2.794q0,8.382-5.588,8.382,0-8.382-5.588-8.382h-2.794l-13.97,2.794,2.794-8.382h5.588l2.794,2.794,2.794-2.794,13.97,2.794,2.794-2.794,2.794,2.794,2.794-19.558V648.982l-5.588-5.588h-2.794Zm-134.112,55.88-2.794,50.292,11.176,2.794-5.588,5.588h-2.794l-2.794-2.794v2.794l-2.794,44.7v2.794l2.794,2.794,13.97-2.794h19.558l2.794,2.794,2.794-2.794h8.382v8.382h-5.588l-2.794-2.794v2.794l-2.794,2.794h13.97l2.794-2.794-2.794-2.794,5.588-22.352-2.794-39.116,2.794-33.528-5.588-44.7H192l-2.794,2.794-2.794-2.794H161.265Zm33.528-8.382v2.794h5.588v5.588l-16.764-2.794V696.48ZM161.265,864.12l11.176-2.794,16.764,2.794H192l2.794-2.794q0,5.6,19.558,5.588l-2.794-27.94V827.8L200.381,825l-13.97,2.794-8.382-5.588h-2.794L178.029,825V827.8l-8.382-5.588h-8.382v41.91Zm89.408-5.588v2.794h19.558l2.794-2.794v5.588l16.764-5.588,2.794,2.794h8.382l2.794-8.382-5.588-19.558-2.794,2.794L287,833.386l-8.382,5.588v-5.588l2.794-2.794q-13.98,2.1-13.97,8.382-11.181-6.287-11.176-16.764h-2.794Zm-69.85,33.528h-2.794l-2.794-2.794h-2.794l-2.794,8.382,5.588,19.558,11.176-2.794L192,920l19.558-2.794L242.291,920q13.965,0,27.94-8.382l8.382,5.588L284.2,906.03l8.382,5.588v-8.382l-2.794-2.794h2.794l-2.794-8.382v-2.794l2.794-2.794H287v5.588H284.2l-8.382-5.588v8.382l-8.382-2.794h-2.794l-2.794,2.794V892.06l-2.794,2.794-2.794-2.794-2.794,2.794-2.794-2.794-13.97,8.382h-2.794l-2.794-2.794q0,3.5-16.764,5.588l-2.794-2.794v-5.588h2.794v5.588l8.382-2.794v-8.382h-2.794v5.588l-8.382-5.588h-2.794v5.588h-2.794l-2.794-2.794-2.794,8.382h-2.794v-2.794l2.794-2.794H189.205l-2.794,2.794v-2.794l2.794-2.794v-5.588h-8.382v5.588ZM383.388,400.316h11.176l8.382-5.588-5.588-8.382q-13.98,6.286-13.97,13.97h0Zm8.382,49.594,0.7,8.382,4.889,3.492h2.794q30.729,0,30.734-8.382-8.382,0-8.382-5.588V445.02l16.764-11.176h2.794v2.794l8.382,8.382V453.4L447.65,456.2h2.794l-2.794,2.794v2.794l2.794,2.794v8.382l2.794,33.528-2.794,2.794,5.588,8.382-2.794,55.88,2.794,19.558q-4.894,0-8.382,36.322l2.794,13.97h2.794l2.794-2.794h2.794l5.588,5.588v2.794l-11.176-5.588v16.764l2.794,16.764-5.588,27.94h2.794l2.794-2.794h2.794l-11.176,47.5H472.8l2.794-2.794,2.794,2.794h2.794l2.794-2.794v2.794l13.97-2.794h5.588l2.794,2.794v-2.794l2.794-2.794V732.8q0-30.729-11.176-30.734v2.794L470,699.274v-5.588l2.794,2.794,2.794-2.794,8.382,2.794,11.176-5.588,2.794,2.794h2.794V654.57h-5.588l-13.97,2.794-2.794-2.794L470,660.158l5.588-13.97-2.794-2.794v-5.588l19.558,8.382h2.794v-2.794l-2.794-2.794v-2.794h5.588l2.794,2.794,5.588-11.176v-27.94l-5.588-5.588h-2.794v5.588h-5.588V595.9q11.166,0,11.176-8.382V584.72H489.56v-2.794h2.794q13.965,0,13.97-50.292V528.84l-2.794-2.794,5.588-11.176-5.588-41.91,2.794-2.794H503.53l8.382-30.734q5.583,0,5.588,13.97h2.794V445.02h5.588q0,8.382,5.588,8.382v-5.588h2.794V453.4h2.794l2.794-11.176,2.794,2.794,8.382-5.588h2.794v11.176H545.44l-2.794-2.794-2.794,8.382v2.794H562.2V453.4h-5.588l5.588-19.558V411.492l-8.382-25.146-8.382,11.176-11.176-2.794-19.558,5.588q-13.98,0-16.764-8.382l-36.322,2.794-19.558-2.794-11.176,5.588-8.382-2.794-11.176,2.794h-2.794l-2.794-2.794v2.794h-5.588v16.764l2.794,13.97-2.794,2.794,2.794,2.794-8.382,16.764ZM442.062,408.7v2.794l-5.588,5.588H433.68v-5.588Zm16.764,8.382v2.794l-5.588,5.588H447.65V417.08h11.176Zm-41.91,25.146,2.794,2.794-5.588,5.588v-8.382h2.794Zm159.258,5.588-2.794,2.794,2.794,8.382h5.588V447.814h-5.588ZM458.826,470.166h2.794v5.588h-8.382Zm39.116,304.546h5.588l-5.588,5.588h-2.794l-5.588-5.588-2.794,2.794-8.382-5.588-11.176,13.97-8.382-2.794V780.3h8.382l-2.794-8.382H461.62l-2.794,2.794q0,8.382-8.382,8.382v19.558l8.382,2.794v-2.794L470,805.446H472.8l2.794-2.794,16.764,2.794h2.794v-5.588h2.794v5.588h5.588q4.88,0,8.382-19.558l-2.794-2.794v-8.382l2.794-2.794q-5.6,0-5.588-8.382Zm-44.7,86.614h2.794l2.794-2.794h5.588l2.794,2.794L470,858.532v5.588H472.8v-5.588l13.97,2.794v-5.588l2.794,2.794,13.97-2.794V850.15h-5.588v-2.794l2.794-2.794v-5.588q-11.181,0-11.176,8.382h-2.794l-2.794-2.794v-2.794l2.794-2.794h-5.588l-2.794,2.794-2.794-2.794H470q0,8.382-5.588,8.382v-8.382H453.238v22.352Zm0,33.528,2.794,2.794-2.794,2.794v11.176q0,4.894,13.97,8.382v-2.794L470,920l8.382-2.794h2.794L483.972,920q13.262-3.488,13.97-11.176V906.03l-2.794-2.794,8.382-8.382V892.06l-5.588,5.588h-2.794v-2.794l2.794-2.794h-5.588l-8.382,5.588h-2.794l-2.794-2.794-2.794,2.794H472.8L470,889.266l-2.794,2.794-13.97-2.794v5.588Zm25.146,5.588,2.794,2.794,2.794-2.794h2.794v8.382h-8.382l-5.588-5.588v-2.794h5.588Zm231.2-498.729-16.764-5.588-13.97,5.588q-25.851,0-36.322,39.116v2.794l2.794,2.794h-2.794v2.794l2.794,2.794v11.176l-8.382,33.528v67.056l2.794,13.97h8.382l13.97-2.794,8.382,5.588,2.794-2.794H704l19.558-2.794,2.794,2.794,13.97-2.794,22.352,5.588,2.794-2.794h16.764v-41.91l-2.794,2.794h-2.794l-2.794-2.794v5.588l-5.588-5.588v-2.794h8.382v-5.588q-33.528,5.6-33.528,19.558h-2.794l-2.794-13.97,5.588-11.176H748.7l2.794,2.794v-2.794h2.794l2.794,2.794h5.588l2.794-2.794v5.588q16.764-4.191,16.764-19.558v-2.794l-2.794-27.94,2.794-25.146V440.829l-11.176-16.764q0-9.774-8.382-19.558-13.982,0-13.97-11.176Zm16.764,33.528,8.382,44.7H731.94v-5.588h-2.794v30.734l8.382,19.558-8.382,30.734-16.764-5.588v2.794l-2.794-2.794h-2.794L704,552.589h-8.382q-5.6,0-5.588-8.382h-2.794q-5.6,0-5.588,8.382H676.06q0-11.165-5.588-11.176h-5.588l-2.794,2.794-5.588-13.97,2.794-8.382,11.176,5.588q0-8.382,16.764-8.382,8.382,0,8.382-33.528v-2.794l-5.588-8.382V454.8q0-4.878,13.97-8.382h2.794l2.794,2.794q11.164,0,11.176-13.97h5.588Zm83.82,16.764,11.176-2.794v-2.794h-2.794q-8.382,0-8.382,5.588h0Zm-33.528,25.146v2.794l-13.97,2.794q0-5.583-13.97-5.588v-2.794l2.794-2.794H745.91v-5.588Zm-125.73,44.7,2.794,8.382q0,8.382-5.588,8.382h-5.588v-2.794l2.794-13.97h5.588Zm16.764,69.85v8.382h2.794l5.588-11.176v-2.794Zm64.262,19.558-5.588,8.382v16.764h2.794v-5.588l19.558,5.588v-2.794l2.794,2.794,2.794-2.794h2.794l2.794,2.794h2.794l2.794-2.794,2.794,2.794h11.176l2.794-11.176h-2.794l2.794-11.176-2.794-22.352h-2.794L773.85,594.5h-2.794l-2.794-2.794v5.588l2.794,2.794h-2.794l-2.794-2.794h-2.794l-2.794,2.794-2.794-8.382H751.5v8.382H748.7q0-8.382-13.97-8.382H731.94v19.558Zm-89.408,8.382,2.794,13.97h8.382l11.176,2.794,11.176-2.794h11.176l2.794-33.528v-2.794l-19.558,5.588h-2.794l-2.794-2.794v2.794l-2.794,2.794-8.382-2.794v-2.794l2.794-2.794h-13.97v22.352Zm100.584,33.528q-5.6,0-5.588-8.382h-8.382l2.794,58.674h2.794l5.588-13.97h2.794l2.794,2.794H751.5l11.176-2.794,11.176,2.794h11.176V675.525q0-36.31-19.558-36.322Zm-100.584,44.7h2.794v-5.588h5.588v8.382H639.738v2.794h5.588v2.794h-5.588v41.91l11.176,2.794,13.97-2.794q11.164,0,11.176,8.382h2.794l11.176-11.176V709.053h-5.588v5.588l-5.588-5.588-5.588,5.588h5.588v5.588l-11.176-8.382h-2.794l-2.794,2.794-2.794-2.794h-5.588l-2.794,2.794v-5.588l2.794-2.794,8.382,2.794q6.973,0,16.764-13.97l8.382,5.588h2.794l2.794-22.352q0-30.729-8.382-30.734,0,8.382-5.588,8.382t-5.588-8.382l-2.794,2.794L659.3,644.791q-16.764,16.764-16.764,53.086h0Zm114.554-44.7v5.588l-8.382-2.794v-2.794h8.382Zm-13.97,53.086H748.7l-2.794-8.382h-2.794v8.382Zm-5.588,16.764-5.588,27.94,19.558-5.588v2.794l8.382-2.794h2.794l2.794,2.794v-5.588h2.794v5.588q16.764,0,16.764-22.352v-2.794h-2.794l-2.794,2.794h-8.382v-2.794l2.794-2.794q-18.173,0-25.146-8.382h-13.97Zm-89.408,41.91v5.588h2.794l2.794-2.794H656.5q-11.182,9.791-11.176,27.94,0,8.382,11.176,11.176H659.3l2.794-2.794v2.794l8.382-2.794,22.352,2.794,2.794-19.558v-2.794q-8.382,0-8.382-25.146h-2.794l-16.764,2.794h-2.794l-2.794-2.794Zm81.026-2.794v2.794l-2.794,2.794v27.94l2.794,13.97h2.794l2.794-33.528,5.588,5.588v27.94H748.7l2.794-8.382,5.588,5.588h2.794l2.794-2.794h5.588l2.794,2.794q0-8.382,8.382-8.382V776.109h-2.794q-7.695-8.382-22.352-11.176H751.5l-2.794,2.794h-13.97v-2.794h8.382v-2.794l-16.764-2.794Zm13.97,55.88v2.794l13.97-5.588v-2.794l-8.382-2.794Zm25.146,8.382v-5.588l2.794-2.794-13.97,2.794v2.794h8.382V826.4l-8.382,2.794-2.794-2.794v8.382l2.794,2.794H751.5L745.91,826.4h-2.794l-2.794,2.794v2.794l2.794,2.794v2.794l-2.794-2.794-11.176,2.794v16.764l5.588,5.588v-5.588h8.382v5.588l5.588-5.588,19.558,5.588,11.176-2.794V845.959l-5.588-5.588h-2.794l-2.794,2.794q0-5.583,8.382-5.588V815.225H773.85q0,11.181-5.588,11.176h0Zm-39.116,0h5.588v-2.794l-5.588-5.588V826.4Zm-83.82,19.558v16.764l11.176-5.588H659.3v5.588l2.794-2.794,2.794,2.794,11.176-5.588h2.794l2.794,2.794v-5.588h2.794l2.794,2.794h2.794v-13.97h-2.794q0-16.764-25.146-16.764h-8.382l-2.794,2.794L648.12,826.4Zm92.2,41.91h-2.794l-2.794-2.794v13.97l5.588,8.382H731.94q0,11.181,11.176,13.97,0-3.488,16.764-5.588h2.794l2.794,2.794,11.176-5.588,2.794,2.794V904.633l-11.176-11.176-2.794,8.382h-2.794v-2.794l2.794-2.794h-8.382v5.588l-11.176-8.382h-2.794l-5.588,5.588h8.382v2.794h-5.588l-5.588-5.588,5.588-5.588v-8.382h-2.794v5.588Zm-92.2,22.352v5.588l2.794,2.794,13.97-5.588,2.794,2.794h16.764l-2.794-2.794v-2.794q8.382,0,8.382,8.382h5.588V899.045h-8.382v2.794h5.588v2.794h-2.794l-8.382-8.382q8.382,0,11.176-11.176h-2.794l-8.382,8.382-16.764-2.794v-2.794h5.588v-2.794h-2.794q-19.564,0-19.558,25.146h0ZM881.419,392.633v5.588l2.794,11.176q-2.8,36.327-11.176,47.5l2.794,11.176h2.794v-5.588H889.8v5.588l2.794-2.794h2.794v2.794l-2.794,2.794H889.8l-2.794-2.794,2.794,8.382v2.794l-13.97-2.794v11.176l5.588,33.528,2.794-2.794,5.588,5.588h-8.382v50.292l19.558,2.793v-5.587h2.794l2.794,2.794h2.794l2.794-2.794v8.382h2.794l2.794-2.8h2.794l5.588,5.589v2.794l-2.794,2.794v2.794h5.588V593.8h-8.382l-8.382-5.588v2.794l5.588,5.588v2.794l-2.794,2.793-11.176-2.793,5.588-8.382h-5.588v-2.794h5.588l-5.588-5.588h-5.588l2.794,2.794L889.8,596.6l-8.382-5.588v36.322H892.6l2.794-2.794q0,5.6,8.382,5.587v2.8H892.6v2.794l11.176,2.794,5.588-8.383,8.382,8.383V641.3l-19.558,5.588q-5.6,0-5.588-11.176H889.8v19.557q-11.183,0-11.176,8.383l2.794,11.176-2.794,8.382L881.419,686v5.587l-8.382,44.7h2.794q0,11.885,13.97,13.97l2.794-2.794v5.588l2.794-2.794,8.382,2.794q11.165-1.392,11.176-8.383h2.794l2.794,2.795h8.382l2.794-16.764-2.794-36.322,5.588-53.086v-8.382h-5.588v2.794l2.794,2.794h-8.382q2.1-8.382,11.176-11.176l-2.794-41.91,5.588-25.146-8.382-33.528v-2.794l-13.97,5.588-8.382-8.382,16.764-2.794h2.794l2.794,2.794,5.588-22.352V445.719l2.794-19.558-2.794-2.794H937.3q0-11.166-8.382-11.176V392.633l-19.558-5.589Zm30.734,72.644,5.588,5.588v2.794h-5.588l-2.794-2.794-5.588,5.588h-2.794v-5.588l2.794-2.794h2.794l2.794,2.794v-5.588h2.794ZM937.3,504.393h5.588l22.352-5.588v-2.794l-19.558-2.794q-4.191,0-8.382,11.176h0Zm64.261-5.588V501.6h13.97v-5.588Zm-61.467,64.261,11.176,5.589h8.382l5.588-5.589v-2.793l-19.558-2.794Zm142.5,55.881,8.38,2.794v-5.589l-2.8-2.793ZM898.183,705.561v2.794l-2.794,2.794-2.794-2.794H889.8l-2.794,2.794h-5.588v-5.588h16.764ZM875.831,778.2V781l2.794,2.794-2.794,11.176,11.176,8.382,11.176-2.794,13.97,2.794,2.794-2.794,2.794,2.794h11.176L923.329,778.2h2.794q0-13.963-11.176-13.969v-2.794l2.794-2.8v-2.793l-30.734,5.588v-8.382h-2.794Zm53.086,47.5-16.764,5.589-2.794-2.794h-2.794l-2.794,11.176h-8.382v-2.794l2.794-2.794-8.382,2.794-11.176-5.588v8.382q0,13.98,8.382,16.764H889.8v-5.588h5.588v5.588l2.794-2.794q13.963,0,13.97-5.588h2.794v11.176q16.764-3.488,16.764-8.382v-27.94h-2.794V825.7Zm-8.382,11.177-2.794,2.794,2.794,2.793v5.589h-2.794l-5.588-11.176h8.382Zm122.935,33.528h5.59V873.2l-2.8,2.794h5.59v-8.382h-8.38v2.794Zm-97.789,13.97v2.794l2.794,2.794v2.794h-8.382l-2.794-2.794v2.794l-8.382-2.794h-5.588v2.794l2.794,2.794q8.382,0,8.382,8.381l8.382-2.793,2.794,8.382h2.794l2.794-2.794v8.382q19.546-2.1,19.558-8.382,16.059,13.98,33.523,13.969l30.74-5.587,5.59,5.587v-5.587l2.79,2.794,16.76-5.588,2.8,2.794v2.794l-2.8,2.793h2.8q6.285,0,8.38-27.939h-2.79l-2.8,2.794-5.59-5.588h5.59v-2.794h-8.38v-2.794l2.79-2.794h-11.17v2.794h5.59v2.794h-2.8l-5.59-5.588h-2.79l-2.79,2.794v-5.588h-2.8l-13.97,2.794v5.588l2.8,2.794h-5.59l-2.8-2.794-2.79,2.794v-5.588l2.79-2.794-19.553-2.794q-36.329,0-36.322,11.176h-2.794v-2.794l5.588-8.382Zm-33.528,8.382,8.382,2.794,2.794-8.382-8.382-2.794Zm-8.382,5.588-8.382,8.382H892.6l-2.794-2.8-5.588,5.589v2.794l8.382,2.794,8.382-2.794h2.794l2.794,2.794,2.794-2.794v5.588h2.794q0-10.477,11.176-13.971l-2.794,8.383v2.794l5.588,5.587,16.764-2.793-2.794-11.176-8.382,5.588h-2.794V901.141l-16.764-5.588h-8.382v2.794Zm13.97,41.91q11.164,0,11.176,8.381h2.794v-2.794l-2.794-8.382H917.741v2.795Zm-5.588,8.381-2.794,8.383v2.793h2.794l5.588-5.588v-2.794l-2.794-2.794,2.794-2.794h-8.382ZM900.977,965.4h2.794l2.794-8.382h-5.588V965.4ZM1229.27,399.617h2.8l5.58-5.587h-2.79Zm64.26,2.794v2.1l2.8,2.794,8.38-2.794,8.38,2.794,30.74-2.794h8.38v-4.89q-16.77,0-16.77-5.587Zm-195.58,2.1V407.3h11.18l5.59-4.89v-2.794l-13.97-2.794Zm16.77,2.794V410.1l5.59,5.588h2.79l2.79-2.794,8.39,5.588,13.97-5.588h2.79l2.79,2.794h2.8l2.79-2.794,2.8,2.794,2.79-13.272v-2.794h-5.59l-16.76-2.794q-27.945,6.991-27.94,10.478h0Zm131.32-4.89-8.39-2.794q-11.175,10.479-25.14,10.478v5.588h13.97l-2.8,2.794,2.8,2.794-2.8,7.684h-5.58v-4.89h5.58v-2.794h-11.17q-9.09,0-19.56,34.925v13.272q8.385,0,8.38,5.588v5.588q-12.57,0-16.76,32.131v13.97l2.79-2.794,2.8,2.794,2.79-2.794,11.18,5.588,2.79-2.794h5.59q0,4.894,11.17,4.889l-5.58,11.176q-34.935,5.6-50.3,16.066l-2.79-2.794q-4.185-21.644-13.97-21.654h-2.79v5.588h-11.18v-8.382l11.18-4.889h13.97l5.58-38.418V475.056h-2.79l-2.79,2.794v2.794l2.79,2.794-16.76,2.794-2.8-2.794-5.59,4.889V502.3l2.8-2.794h2.79V502.3l-2.79,2.794h-2.8l-2.79-2.794-5.59,5.588-13.97-2.794v-8.382q11.175,0,11.18-8.382v-2.095l-8.38-2.794c0,3.263-3.74,4.889-11.18,4.889v24.448l2.79,13.97h2.8l2.79-2.794h2.8l5.58,5.588,11.18-2.794h2.79v2.794q-6.99,0-8.38,13.271h-2.79l-2.8-2.794h-5.58l-8.39,8.382v2.794l8.39,2.1,11.17-7.684h2.8l2.79,2.794q0,10.478-11.18,13.272l-11.17-5.588v27.241l8.38,2.794q0-5.583,19.56-5.588l2.79,8.382,25.15-8.382h2.79l2.8,2.794,11.17-2.794h2.8l2.79,2.794,11.18-2.794h2.79l2.79,2.794v-2.794q5.6,0,5.59,8.382h2.8q0-8.382,13.97-8.382h13.97l-2.8-10.477-19.56-16.764h2.8l-2.8-7.684,2.8-13.97q13.965-21.642,13.97-34.925v-2.794l-2.8-13.271q13.965-30.025,13.97-78.233l13.97,4.89h2.8l-11.18-10.478h-2.79l-2.8,2.794v-2.794Zm-41.91,13.272,8.38-8.382h-8.38v8.382Zm-67.06,13.272v16.764l-5.59,4.889h-11.17l-2.8-2.794v21.654h11.18l2.79-2.1v2.1h2.8l2.79-2.1h8.38l2.8,2.1,2.79-2.1h5.59v4.89h2.79l2.8-2.794h2.79l2.79,2.794v-7.684l-5.58-38.417h-2.8l-2.79,2.794h-5.59l-2.79-2.794Zm-22.35,5.588v8.382h2.79l11.18-8.382-5.59-5.588h-2.79Zm27.94,11.176q8.385,0,8.38,4.889l-11.18-2.794v-2.1h2.8Zm72.64,23.749v2.794l13.97-2.794h8.38v8.382h-2.79l-2.79-2.794h-2.8l-2.79,2.794-2.8-2.794-8.38,5.588h-11.17V477.85Zm-78.23,119.443-2.79,2.794,8.38,16.066v2.794l-13.97,7.683-13.97-4.889v-2.794q11.16,0,13.97-11.176h-2.8l-2.79-2.794h-2.79l-8.39,8.382v16.065q0,27.241,8.39,27.242v2.794q-6.99,0-8.39,13.271h8.39q8.37-2.1,8.38-16.065h2.79l2.8,13.271q-5.61,12.573-11.18,13.97,0-8.382-8.38-8.382v10.478l5.59,16.764,2.79-2.795h2.79l2.8,2.795h5.59l2.79-2.795v2.795h5.59v2.794l-2.8,2.1h2.8l8.38-4.889v2.794l-11.18,7.683v-5.588h-11.17v2.794q8.385,0,8.38,13.97v4.89l-5.59,5.588h-8.38l-2.79-2.794q0-7.678,8.38-7.684v-2.794l-5.59-5.588h-11.18v37.719l19.56,2.794,2.8-2.794,11.17,2.794h5.59v-5.588h2.79l11.18,8.382,2.79-8.382q-2.79-37.719-13.97-37.719v-7.683q11.88,0,13.97-81.725l-2.79-26.543h-2.79l-8.39,4.89h-8.38l-5.59-4.89h-2.79Zm39.12,4.89,2.79,11.176h5.59l2.79-13.272v-2.794Zm19.55,27.241,8.39,83.82-5.59,35.624,2.79,10.477h2.8v-5.588h5.58v5.588l16.77-5.588v2.794l2.79,2.794,16.77-5.588,2.79,2.794h2.79V732.1l5.59-73.343v-4.889l-5.59-5.588h-2.79l-2.79-8.382h-5.59l2.79,8.382-11.17,2.794,5.58,5.587v2.1q-12.57-13.26-19.55-13.271V639.9h-2.8l-13.97,2.793q0-4.878,16.77-7.683h2.79l2.79,2.1q27.93-1.392,27.94-7.684V610.565l-2.79-11.176V596.6l-16.76,5.587L1218.1,593.8v5.588h-2.8l-2.79-2.794h-5.59l-2.79,2.794V593.8h-2.8Zm50.3,73.343v2.794h-11.18v-2.794h11.18Zm-22.36,4.889v5.588h-2.79l-5.59-5.588h8.38Zm-72.64,60.071h2.79v-5.588h-8.38Zm78.23,2.794h13.97v-2.794l-8.38-2.794Zm-117.35,10.478v16.065l2.8,2.794-2.8,2.794v2.794l2.8,2.794,8.38-5.588,2.79,10.478,13.97-4.89,2.8,2.794h16.76l5.59-35.623h-2.79v5.588h-2.8v-5.588h-13.97q0,5.6-11.17,5.588,0,18.858-13.97,18.859,0-10.478-5.59-10.477l13.97-11.176-5.59-5.588h-2.79Zm92.21,30.035h2.79q0-8.382,8.38-8.382v8.382l8.38-2.794h8.39l2.79,2.794h2.79l2.8-2.794,5.59,7.684q7.665,0,11.17-18.86,0-24.443-19.56-24.447h-5.58l-5.59,5.588-22.35-5.588h-2.8Zm-58.68-19.558v2.794l-8.38,2.794v-2.794l2.79-2.794h5.59Zm67.06,38.418-2.8-2.794v5.588l-2.79-2.794-5.59,4.889,2.8,16.764v2.794l-2.8,2.1,13.97,8.382v-2.794l11.18,2.794,16.76-2.794h8.38l2.8-13.272v-2.794l-2.8-2.794,2.8-2.794V813.13h-2.8l-13.97,2.794v-5.588ZM1111.92,829.2l5.59,5.588,11.18-13.271h-8.38Zm16.77,11.176h-8.38l-5.59-5.588-5.59,5.588v13.272l5.59,5.588h5.59l2.79-2.794v2.794q41.91-2.1,41.91-8.382V840.371q0-9.774-11.18-18.859l-2.79,2.794-2.79-2.794Zm19.56,34.925h-2.8l-2.79-2.794q-9.09,24.459-13.97,24.448h-5.59l-8.38-5.588q0,18.171,13.97,21.653v-2.794h2.79l2.8,2.794c0-5.119,1.85-7.683,5.58-7.683l19.56,10.477,5.59-18.859-2.79-24.448v-2.794h-5.59Zm-33.53,13.272h2.79l11.18-4.89-2.8-8.382h-11.17v13.272Zm114.55-2.1q-5.6,0-5.59-8.382l-11.17,2.794h-2.8l-2.79-2.794-8.38,21.653q3.48,13.278,8.38,13.272l13.97-2.794,2.79,2.794v-2.794l2.8-2.1,2.79,2.1,8.38-4.889h2.8c0,5.129,1.85,7.683,5.59,7.683h8.38l2.79-7.683-2.79-18.86v-2.794l-8.38,2.794-5.59-5.588-2.8,2.794h-2.79v-2.794l2.79-2.794V875.3Zm13.97,67.056-2.79,2.794,8.38,5.588h5.59l2.79-10.478q-4.185-24.458-11.17-24.447h-2.8v26.543Zm-103.38-21.654h-5.58l8.38,8.383v2.793l-2.8,2.794h5.59l2.8-2.794-2.8,8.382v2.1l8.38-4.89-2.79-2.794,2.79-13.97v-2.1l-8.38,2.1h-2.79l-2.8-2.1v2.1Zm228.41-530.161-8.38-5.588h-2.79q0,25.146-13.97,25.146v16.764q-8.385,0-8.38,13.97v5.588l2.79,2.794,2.79-2.794,16.77,2.794v5.588l-8.38,2.794v-5.588l-8.39,5.588v-5.588h-2.79l-2.79,19.558v25.146l2.79,13.97h2.79v-5.588q8.385,0,8.39-8.382h2.79q0,8.382,8.38,8.382,0-6.287,16.77-11.176h2.79l2.79,2.794v-2.794h2.8l2.79,2.794V502.3l5.59,5.588,16.76-5.588,22.36,5.588,5.58-5.588,2.8,2.794,8.38-2.794,13.97,2.794,13.97-2.794V479.945l-2.79,2.794-8.39-2.794-27.94,5.588v-5.588h-5.58v2.794l2.79,2.794v2.794h-11.18q0-8.382-5.58-8.382h-8.39v5.588h-2.79v-5.588q-11.19,0-11.18-5.588h-8.38v2.794h5.59v2.794l-5.59,5.588v-2.794q0-5.583-13.97-5.588v-5.588l2.8-2.794h-5.59v-2.794l5.59-8.382q13.95,0,13.97-13.97V426.859h5.58q0,11.181,8.39,11.176h2.79l2.79-2.794,2.8,2.794h2.79v-13.97h5.59l2.79,19.558h2.8l19.56-11.176,5.58,8.382,5.59-5.588v-5.588l-2.79-13.97h-16.77V404.507h-2.79V410.1l-2.79-2.794q-8.385,0-8.39,11.176h-5.58l-5.59-5.588h-2.8l-2.79,2.794V410.1l2.79-2.794,13.97,2.794q0-11.165,13.97-11.176v-2.794l-22.35-5.588h-16.76Zm72.65-5.588,11.17,2.794v-2.794l2.8-2.794h-13.97v2.794Zm19.56,0h13.97v-2.794h-13.97v2.794ZM1345.92,547l-5.59-5.588h-2.79l2.79,19.558v5.588q13.965,0,13.97,5.588l22.36-5.588v5.588h2.79V560.971l13.97,2.794v-5.588q0-20.955-8.38-22.352h-5.59q-11.88,0-33.53,11.176h0Zm22.35,61.468h-8.38l-5.59-5.588q0-5.583,11.18-5.588v-8.382h-5.59l-8.38,5.588h-5.59l-2.79-2.794V594.5l-2.8,2.794v5.588q0,29.337,13.97,30.734v2.794q-11.175,0-11.17,25.146l2.79,27.94h-5.59v22.352q0,23.754,5.59,36.322h-2.79l2.79,2.794-8.38,39.116,2.79,2.794q0,5.6,11.18,5.588v2.794h-5.59v2.794h2.8l11.17-2.794v8.382h-5.59v2.794h8.39c0-5.588,1.85-8.382,5.58-8.382v5.588h2.8v-5.588h2.79l2.8,2.794q13.95,0,13.97-50.292v-27.94l2.79-2.794q-4.89,0-8.38-39.116,4.875,0,8.38-13.97v-2.794l-2.79-2.794,2.79-8.382-2.79-27.94h-2.8l-2.79,2.794-5.59-5.588v-2.794h5.59v2.794l-2.8,2.794h5.59v-27.94l2.8-13.97h-2.8l-2.79,2.794h-2.8v-2.794l2.8-2.794h-5.59q0,16.077-11.18,22.352h0Zm5.59,25.146v2.794h-11.17v-5.588Zm19.56,167.64,5.59-5.588v-2.794l-2.8-19.558h-2.79v27.94Zm-47.5,22.352h-2.79l-2.8-2.794v19.558l2.8,13.97,2.79-2.794,5.59,5.588h2.79l2.8-2.794h2.79l2.8,2.794,5.58-5.588v5.588h5.59v-5.588h2.8v8.382h5.58v-2.794l-2.79-2.794v-2.794h2.79l2.8,2.794v-8.382h5.59v2.794l-2.8,2.794v2.794l11.18-11.176V831.989l-2.8-2.794h-2.79l-2.79,2.794h-5.59l-2.8-11.176v-2.794l2.8-2.794q-13.98,0-13.97,13.97h-5.59q0-13.965-8.38-13.97-11.19,1.408-11.18,8.382h0ZM1510.77,873.9h2.79v-5.588h-8.38Zm-167.64,2.794,11.17,44.7-2.79,8.382q5.58,0,5.59,13.97h5.59q4.185-39.111,13.97-39.116v5.588q11.16,0,11.17,8.382,16.77,0,22.35-22.352l19.56,2.794v2.794q-6.285,0-11.17,11.176l13.97-5.588,11.17,11.176,11.18-2.794,5.59,5.588,30.73-8.382q5.58,0,5.59,8.382h2.79v-5.588h2.8l2.79,2.794,8.38-5.588h8.38v2.794l-2.79,2.794h8.38l2.8-13.97V893.457h-2.8l-2.79,2.794h-2.8v-5.588l2.8-2.794q-8.385,0-8.38-8.382l-16.77,5.588v-5.588h-8.38q-5.6,0-5.59,11.176l-2.79-2.794-2.8,2.794h-2.79l-2.79-2.794v-2.794l2.79-2.794v-2.794h-30.73l-19.56,2.794-2.8-2.794-11.17,2.794-5.59-5.588h-2.79l-2.8,2.794-19.56-2.794v5.588l-8.38-2.794h-2.79l-2.8,2.794h-2.79l-2.79-2.794h-2.8l-2.79,2.794h-2.8l-2.79-2.794-2.79,2.794h-2.8v-2.794l2.8-2.794V873.9h-5.59v2.794Zm271.02-481.266V406.6l-2.8,25.146,2.8,8.382-2.8,8.382,5.59,16.764h2.79q0,11.181-8.38,11.176l-2.79,30.734,2.79,11.176-2.79,11.176v27.94l-2.8,2.794q5.58,0,5.59,13.97v47.5l2.8,19.558,2.79-2.794h5.59V641.3l-8.38,2.793h-2.8l2.8,8.383v2.793l-2.8,2.794,5.59,5.589-5.59,8.382v8.382l5.59,11.175q13.965,0,13.97,5.589h5.59q24.435-9.071,25.14-19.558-2.79-19.548-11.17-19.559v-2.794l2.79-2.793v-2.794l-19.56-5.589V641.3l2.8-2.794h-5.59v-5.588l11.18,8.382h2.79v-5.588h5.59V641.3h8.38l-2.79-8.382,8.38-2.8v-5.587q13.965,0,13.97-8.383H1684q0,6.991,11.17,8.383l5.59,5.587-2.79,13.97v30.735l5.58,16.763,2.8-2.793q16.755,4.189,16.76,16.764v2.794l-8.38-2.794q-11.19,0-11.18,8.382h-2.79v-5.588h-2.79l-2.8,19.558q2.79,16.764,13.97,16.763v2.795q-8.385,0-8.38,5.588v8.382l2.79,2.794,2.8-2.794h2.79q0,8.382-8.38,8.382L1703.55,781v2.794l-2.79,2.794,2.79,13.97h2.8l2.79-2.794h2.8c0,7.454,1.85,11.176,5.58,11.176l2.8-8.382,2.79,2.794h2.8l2.79-2.794h2.79l2.8,2.794,11.17-5.588h2.8l2.79,2.794h2.8v-2.794l-5.59-33.528h-2.8q0,8.382-8.38,8.382h-5.59l5.59-5.588q-7.695-11.166-13.97-11.176v-2.794l5.59-5.588h2.79v8.382l11.18-8.382q13.965,0,13.97-30.734l-2.79-8.382h-2.8l-2.79,2.794-5.59-5.588q8.385,0,8.38-5.588v-2.794l-2.79,2.794h-5.59v-2.794c7.44,0,11.18-2.794,11.18-8.382V669.239q0-20.957-11.18-22.352l-2.79,2.794V632.917q8.37,0,11.17-11.176-1.41-19.548-11.17-19.559,0-8.38-8.39-8.381,0-13.965-11.17-13.97c0,5.588-3.74,8.382-11.18,8.382q0,11.181-5.59,11.176l-11.17-19.558-5.59,5.588h5.59V593.8h-2.8l-2.79-2.794H1684V596.6q-16.77,0-16.77,5.587l-2.79-2.793-8.38,2.793-2.8-8.381q-16.755,0-16.76-5.588v-8.382l11.17-2.8,11.18,5.589h2.79v-8.382l2.8-13.97-2.8-2.794,2.8-8.382V546.3l-2.8-2.794,2.8-47.5-2.8-13.97,2.8-2.794-5.59-11.176,5.59-30.734q16.05,1.407,25.14,8.382h2.8v-5.588h5.59v19.558l8.38,2.794-5.59,11.176,2.79,11.176v19.558l-2.79,2.794q5.58,0,5.59,8.382,8.385,0,8.38,5.588l13.97-5.588h2.79l2.8,2.794,2.79-2.794h2.8l2.79,2.794v-2.794h5.59V482.041h-2.8l-2.79,2.794h-2.79v-5.588l2.79-2.794-5.59-5.588h-2.79l-2.8,2.794h-2.79v-8.382h-2.79l-2.8,2.794v-2.794l5.59-5.588v5.588q16.77,0,16.76-16.764h-8.38l2.8-8.382h2.79v5.588h2.79v-2.794q0-8.382-5.58-8.382h-2.8v5.588h-5.59q0-11.166-5.58-11.176h-13.97l-2.8,2.794v-8.382h5.59v-2.794h-8.38l2.79-13.97q0-11.166-22.35-13.97l-2.79,2.794h-8.39l-2.79-2.794-2.79,2.794q-13.995,0-16.77-8.383h-2.79l-2.8,2.8H1633.7l-2.79-2.8q0,8.384-16.76,8.383h0Zm-33.53,53.086v2.794H1589v-5.588Zm81.02,47.5v8.382h-5.58V501.6Zm53.09,44.7v-2.794l2.79-2.794h-5.58l-11.18,16.764v8.382h2.79l2.8-2.794v5.587h-5.59v8.383h2.79l2.8-2.794,22.35,5.588h5.59v-5.588h2.79l2.8,2.794,8.38-39.116-11.18-2.794q0,4.191-22.35,11.176h0Zm-53.09,50.292,5.59,5.588v-13.97h-2.79Zm-44.7,114.554v2.794l2.79,2.794v2.794h-2.79l-2.79-2.794q0,20.266,8.38,22.352h5.59l-5.59-5.588v-2.795l2.79,2.795h2.8l2.79-2.795h2.79v5.589l-2.79,2.794,22.35,2.794-2.79,2.794q0,8.38,8.38,8.382l-8.38,11.175,11.17-2.793v-13.97l2.8-13.97h-8.38l2.79-2.795q-5.6-8.381-5.59-22.351h-2.79l-2.8,2.794v-5.588l-16.76,2.794h-2.79l-2.8-2.794Zm97.79,41.91h5.59l-5.59,11.175-11.18-2.793q0-4.191,11.18-8.382h0Zm-86.61,8.382,2.79,11.176q-16.77,5.6-16.76,11.175V781l2.79,2.794-2.79,2.794h2.79q5.58,0,5.59-8.383h2.79V781l-5.59,11.176h-2.79l-2.79-2.794h-5.59l-2.8,2.794q0,13.98,11.18,16.764l2.79-2.794h2.8l8.38,5.588,2.79-8.382-2.79-2.794h5.59v8.382h2.79v-13.97h2.8v8.382l16.76-5.588V781l2.79-2.8h-2.79l2.79-8.381v-2.794l-2.79-2.794,2.79-2.794v-2.8c-3.73,0-5.58,2.8-5.58,8.383l-11.18-5.588-2.79,2.794h-5.59v-8.382h-2.8l-2.79,2.793v-5.587h-2.79v2.794Zm94.99,2.793q0,5.6,8.38,5.589v2.794h-11.17l-2.8-8.383h5.59Zm-111.76,55.881-5.59,8.382V825.7l2.8,2.795h-2.8v2.794l2.8,2.794v5.588h-2.8l-2.79,2.793,2.79,2.795v8.382l8.39-2.794h2.79l2.79,2.794,25.15-2.794h13.97l2.79-8.383-5.58-11.175,5.58-5.589-13.97,2.795q0-8.382-8.38-8.382h-2.79l-2.8,2.794v-2.794l2.8-2.794h-2.8l-8.38,5.588v-5.588h-2.79c0,4.66-3.74,7.454-11.18,8.381v-5.587c7.44,0,11.18-2.794,11.18-8.382h-13.97Zm103.38,2.794q-15.375,0-19.56,22.352,1.395,7.694,13.97,11.176h2.8l2.79-2.794h2.79l2.8,2.794,27.94-5.588-2.8-2.795,5.59-19.557v-5.588l-2.79,2.794-2.8-2.794h-2.79l-2.79,2.794h-2.8l-2.79-2.794,2.79,13.97h-5.59V820.115h-2.79l-2.79,2.794v-5.588l-2.8,2.794h-2.79l-2.8-2.794v5.588h-2.79v-5.588Zm-67.06,53.086-8.38-2.794-8.38,5.588L1633.7,876q0,13.98-11.17,16.764l-11.18-5.588v16.763l13.97,5.589v-2.794l5.59-5.588h2.79l19.56,11.176,5.59-16.764V864.819l-2.79,2.794-2.8-2.794ZM1608.56,876v5.588l2.79,2.794c7.44-2.794,11.18-5.588,11.18-8.382v-5.588h-8.38Zm86.61,22.352,2.8,11.176h2.79l22.35-5.589,2.8,2.8,8.38-5.588h2.79v8.382h8.38l5.59-5.589v-5.587l-2.79-19.558h-2.8l-2.79,2.794-11.18-8.382c-3.73,0-5.58,2.794-5.58,8.382h-2.8q0-8.382-13.97-8.382v5.588h-2.79V873.2h-8.38Zm44.71,27.939-2.8,2.794v16.764l5.59,16.764,8.38-8.382V940.257q0-13.981-11.17-16.765v2.794ZM1636.5,929.08h-5.59q5.58,13.965,11.18,13.97v2.794l-2.8,2.794v2.794l8.38-2.794v-8.381l-2.79-2.795,2.79-2.794v-8.382h-2.79l-2.79,2.794h-2.8l-2.79-2.794v2.794ZM176.283,964.1l11.176,2.794V964.1l2.794-2.794h-13.97V964.1Zm19.558,0h13.97V961.3h-13.97V964.1ZM81.287,1114.97l-5.588-5.58H72.905l2.794,19.55v5.59q13.965,0,13.97,5.59l22.352-5.59v5.59h2.794v-11.18l13.97,2.8v-5.59q0-20.955-8.382-22.35h-5.588q-11.886,0-33.528,11.17h0Zm22.352,61.47H95.257l-5.588-5.59q0-5.58,11.176-5.58v-8.39H95.257l-8.382,5.59H81.287l-2.794-2.79v2.79l-2.794,2.8v5.58q0,29.34,13.97,30.74v2.79q-11.181,0-11.176,25.15l2.794,27.94H75.7v22.35q0,23.76,5.588,36.32H78.493l2.794,2.8-8.382,39.11,2.794,2.8c0,3.73,3.722,5.58,11.176,5.58v2.8H81.287v2.79h2.794l11.176-2.79v8.38H89.669v2.79h8.382q0-8.37,5.588-8.38v5.59h2.794v-5.59h2.794l2.794,2.8q13.965,0,13.97-50.3v-27.94l2.794-2.79q-4.894,0-8.382-39.12,4.878,0,8.382-13.97v-2.79l-2.794-2.79,2.794-8.39-2.794-27.94H123.2l-2.794,2.8-5.588-5.59v-2.79H120.4V1196l-2.794,2.79H123.2v-27.94l2.794-13.97H123.2l-2.794,2.8h-2.794v-2.8l2.794-2.79h-5.588q0,16.08-11.176,22.35h0Zm5.588,25.15v2.79H98.051v-5.59Zm19.558,167.64,5.588-5.59v-2.79l-2.794-19.56h-2.794v27.94Zm-47.5,22.35H78.493l-2.794-2.79v19.55l2.794,13.97,2.794-2.79,5.588,5.59h2.794l2.794-2.8h2.794l2.794,2.8,5.588-5.59v5.59h5.588v-5.59h2.794v8.38h5.588v-2.79l-2.794-2.8v-2.79h2.794l2.794,2.79v-8.38h5.588v2.8l-2.794,2.79v2.79l11.176-11.17v-11.18l-2.794-2.79h-2.794l-2.794,2.79H120.4l-2.794-11.17v-2.8l2.794-2.79q-13.982,0-13.97,13.97h-5.588q0-13.965-8.382-13.97-11.181,1.41-11.176,8.38h0Zm48.895,93.6,2.095-38.42-14.668-2.09v5.58l-8.382-2.79h-2.794l-2.794,2.79h-2.794l-2.794-2.79H95.257l-2.794,2.79H89.669l-2.794-2.79-2.794,2.79H81.287v-2.79l2.794-2.79v-2.8H78.493v2.8l11.176,44.7-2.794,8.38q5.583,0,5.588,13.97h5.588q4.191-39.1,13.97-39.11v5.58q11.164,0,11.176,8.39a15.443,15.443,0,0,0,6.985-1.4h0Zm-20.955-440.06v-5.58l2.794-2.8h-5.588v-2.79l5.588-8.38q13.965,0,13.97-13.97V994.831h5.588q0,11.188,8.382,11.179h2.794l2.794-2.8,2.794,2.8h2.794V992.037h5.588l2.794,19.563h2.794l19.558-11.18,5.588,8.38,5.588-5.59v-5.585l-2.794-13.97H173.489V972.479H170.7v5.588l-2.794-2.794q-8.382,0-8.382,11.176h-5.588l-5.588-5.588h-2.794l-2.794,2.794v-5.588l2.794-2.794,13.97,2.794q0-11.164,13.97-11.176V964.1l-22.352-5.588H134.373l-30.734,11.176L95.257,964.1H92.463q0,25.146-13.97,25.146v16.767q-8.382,0-8.382,13.97v5.59l2.794,2.79,2.794-2.79,16.764,2.79v5.59l-8.382,2.79v-5.59l-8.382,5.59v-5.59H72.905l-2.794,19.56v25.15l2.794,13.97H75.7v-5.59q8.382,0,8.382-8.38h2.794q0,8.385,8.382,8.38,0-6.285,16.764-11.18h2.794l2.794,2.8v-2.8H120.4l2.095,2.1,0.7,0.7v-5.59l5.588,5.59,16.764-5.59,22.352,5.59,5.588-5.59,2.794,2.79,8.382-2.79,13.97,2.79,13.97-2.79v-22.35l-2.794,2.79-8.382-2.79-27.94,5.59v-5.59H167.9v2.79l2.794,2.8v2.79H159.519q0-8.385-5.588-8.38h-8.382v5.59h-2.794v-5.59q-11.181,0-11.176-5.59H123.2v2.79h5.588v2.8l-5.588,5.59v-2.8a2.869,2.869,0,0,0-.7-2.09q-2.094-3.495-13.271-3.5h0Zm261.239-75.435L353.7,964.1l-13.97,5.588q-25.849,0-36.322,39.115v2.8l2.794,2.79H303.41v2.79l2.794,2.8v11.17l-8.382,33.53v67.06l2.794,13.97H309l13.97-2.8,8.382,5.59,2.794-2.79h30.734l19.558-2.8,2.794,2.8,13.97-2.8,22.352,5.59,2.794-2.79H443.11V1103.8l-2.794,2.79h-2.794l-2.794-2.79v5.59l-5.588-5.59V1101h8.382v-5.58q-33.528,5.6-33.528,19.55H401.2L398.406,1101l5.588-11.17h5.588l2.794,2.79v-2.79h2.794l2.794,2.79h5.588l2.794-2.79v5.59q16.764-4.2,16.764-19.56v-2.8l-2.794-27.94,2.794-25.14V1008.8l-11.176-16.763q0-9.773-8.382-19.558-13.982,0-13.97-11.176Zm16.764,33.525,8.382,44.71h-2.794v-5.59h-2.794v30.73l8.382,19.56-8.382,30.74-16.764-5.59v2.79l-2.794-2.79h-2.794l-2.794,2.79H356.5q-5.6,0-5.588-8.38h-2.794q-5.6,0-5.588,8.38h-5.588q0-11.16-5.588-11.17h-5.588l-2.794,2.79-5.588-13.97,2.794-8.38,11.176,5.59q0-8.385,16.764-8.39,8.382,0,8.382-33.52v-2.8l-5.588-8.38v-19.56q0-4.875,13.97-8.38h2.794l2.794,2.79q11.164,0,11.176-13.97h5.588Zm83.82,16.77,11.176-2.8v-2.79h-2.794q-8.382,0-8.382,5.59h0Zm-33.528,25.14v2.8l-13.97,2.79q0-5.58-13.97-5.59v-2.79l2.794-2.79h-5.588v-5.59Zm-125.73,44.71,2.794,8.38q0,8.385-5.588,8.38H303.41v-2.79l2.794-13.97h5.588Zm16.764,69.85v8.38h2.794l5.588-11.18v-2.79Zm64.262,19.56-5.588,8.38v16.76h2.794v-5.59l19.558,5.59v-2.79l2.794,2.79,2.794-2.79h2.794l2.794,2.79h2.794l2.794-2.79,2.794,2.79h11.176l2.794-11.17h-2.794l2.794-11.18-2.794-22.35h-2.794l-2.794,2.79h-2.794l-2.794-2.79v5.59l2.794,2.79H429.14l-2.794-2.79h-2.794l-2.794,2.79-2.794-8.38h-5.588v8.38h-2.794q0-8.385-13.97-8.38h-2.794v19.56Zm-89.408,8.38,2.794,13.97h8.382l11.176,2.79,11.176-2.79h11.176l2.794-33.53v-2.79l-19.558,5.58h-2.794l-2.794-2.79v2.79l-2.794,2.8-8.382-2.8v-2.79l2.794-2.79H303.41v22.35Zm100.584,33.53q-5.6,0-5.588-8.39h-8.382l2.794,58.68h2.794l5.588-13.97h2.794l2.794,2.79h5.588l11.176-2.79,11.176,2.79H445.9V1243.5q0-36.315-19.558-36.32Zm-100.584,44.7H306.2v-5.59h5.588v8.38H300.616v2.8H306.2v2.79h-5.588v41.91l11.176,2.8,13.97-2.8q11.164,0,11.176,8.38h2.794l11.176-11.17v-36.32H345.32v5.58l-5.588-5.58-5.588,5.58h5.588v5.59l-11.176-8.38h-2.794l-2.794,2.79-2.794-2.79h-5.588l-2.794,2.79v-5.58l2.794-2.8,8.382,2.8q6.974,0,16.764-13.97l8.382,5.58h2.794l2.794-22.35q0-30.72-8.382-30.73,0,8.385-5.588,8.38t-5.588-8.38l-2.794,2.79-11.176-5.59q-16.764,16.77-16.764,53.09h0Zm114.554-44.7v5.58l-8.382-2.79v-2.79h8.382Zm-13.97,53.08h5.588l-2.794-8.38h-2.794v8.38ZM398.406,1291l-5.588,27.94,19.558-5.59v2.79l8.382-2.79h2.794l2.794,2.79v-5.59h2.794v5.59q16.764,0,16.764-22.35V1291H443.11l-2.794,2.79h-8.382V1291l2.794-2.8q-18.173,0-25.146-8.38h-13.97ZM309,1332.91v5.58h2.794l2.794-2.79h2.794Q306.2,1345.5,306.2,1363.64q0,8.385,11.176,11.18h2.794l2.794-2.8v2.8l8.382-2.8,22.352,2.8,2.794-19.56v-2.8q-8.382,0-8.382-25.14H345.32l-16.764,2.79h-2.794l-2.794-2.79Zm81.026-2.8v2.8l-2.794,2.79v27.94l2.794,13.97h2.794l2.794-33.53,5.588,5.59v27.94h8.382l2.794-8.38,5.588,5.59h2.794l2.794-2.8h5.588l2.794,2.8q0-8.385,8.382-8.39v-22.35h-2.794q-7.695-8.385-22.352-11.17h-2.794l-2.794,2.79h-13.97v-2.79h8.382v-2.8l-16.764-2.79Zm13.97,55.88v2.8l13.97-5.59v-2.8l-8.382-2.79Zm25.146,8.38v-5.58l2.794-2.8-13.97,2.8v2.79h8.382v2.79l-8.382,2.8-2.794-2.8v8.39l2.794,2.79h-5.588l-5.588-11.18h-2.794l-2.794,2.8v2.79l2.794,2.8v2.79l-2.794-2.79-11.176,2.79v16.76l5.588,5.59v-5.59h8.382v5.59l5.588-5.59,19.558,5.59,11.176-2.79v-11.18l-5.588-5.59h-2.794l-2.794,2.8q0-5.58,8.382-5.59V1383.2h-2.794q0,11.175-5.588,11.17h0Zm-39.116,0h5.588v-2.79l-5.588-5.59v8.38Zm-83.82,19.56v16.77l11.176-5.59h2.794v5.59l2.794-2.8,2.794,2.8,11.176-5.59h2.794l2.794,2.79v-5.59h2.794l2.794,2.8h2.794v-13.97h-2.794q0-16.77-25.146-16.77h-8.382l-2.794,2.8-2.794-2.8Zm92.2,41.91h-2.794l-2.794-2.79v13.97l5.588,8.38h-5.588q0,11.175,11.176,13.97,0-3.495,16.764-5.59h2.794l2.794,2.8,11.176-5.59,2.794,2.79v-11.17l-11.176-11.18-2.794,8.38h-2.794v-2.79l2.794-2.8h-8.382v5.59l-11.176-8.38h-2.794l-5.588,5.59h8.382v2.79H401.2l-5.588-5.59,5.588-5.58v-8.39h-2.794v5.59Zm-92.2,22.35v5.59l2.794,2.8,13.97-5.59,2.794,2.79h16.764l-2.794-2.79v-2.8q8.382,0,8.382,8.39H353.7v-19.56H345.32v2.79h5.588v2.8h-2.794l-8.382-8.39q8.382,0,11.176-11.17h-2.794l-8.382,8.38-16.764-2.79v-2.8h5.588v-2.79h-2.794q-19.563,0-19.558,25.14h0ZM647.77,1042.33l-5.588,8.38v2.8q0,33.525,8.382,33.52,16.764,0,16.764,8.39l11.176-5.59,2.794,8.38-5.588,13.97-2.794-2.79h-5.588q-5.6,0-5.588,11.17h-5.588q0-7.68-4.889-8.38v33.53h13.271l2.794,2.79,8.382-5.59,13.97,2.8h8.382l2.794-13.97v-67.06l-8.382-33.53v-11.17l2.794-2.8v-2.79h-2.794l2.794-2.79v-2.8q5.583-50.977-2.1-41.909l-48.2-2.794-2.794.7-2.794,1.4,8.382,55.177v20.96Zm44.7,47.5,2.794,13.97v2.79H689.68q-5.6,0-5.588-8.38l2.794-8.38h5.588Zm-125.73,176.02H563.95l-2.794,8.38h5.588v-8.38Zm8.382,13.97h-13.97q-6.99,8.385-25.146,8.38l2.794,2.8v2.79h-8.382l-2.794-2.79h-2.794v2.79q0,22.365,16.764,22.35v-5.59h2.794v5.59l2.794-2.79h2.794l8.382,2.79v-2.79l19.559,5.59L572.332,1291Zm8.382,47.5-16.764,2.79v2.8h8.382v2.79h-13.97l-2.794-2.79h-2.794q-14.668,2.79-22.352,11.17h-2.794v22.35q8.382,0,8.382,8.39l2.794-2.8h5.588l2.794,2.8h2.794l5.588-5.59,2.794,8.38h8.382v-27.94l5.588-5.59,2.8,33.53h2.793l2.794-13.97V1335.7l-2.794-2.79v-2.8Zm-22.352,50.29-8.382,2.79v2.8l13.97,5.59v-2.8Zm-25.146,5.59h-2.794v22.35q8.382,0,8.382,5.59l-2.794-2.8H536.01l-5.588,5.59v11.18l11.176,2.79,19.558-5.59,5.588,5.59v-5.59h8.382v5.59l5.588-5.59v-16.76l-11.176-2.79-2.794,2.79v-2.79l2.794-2.8v-2.79l-2.794-2.8H563.95l-5.588,11.18h-5.588l2.794-2.79v-8.39l-2.794,2.8-8.382-2.8v-2.79h8.382v-2.79l-13.97-2.8,2.794,2.8v5.58q-5.6,0-5.588-11.17h0Zm44.7,2.79-5.588,5.59v2.79h5.588v-8.38Zm-11.176,83.82H563.95v-2.79h8.382Zm-8.382-248.66v2.79l-8.382,2.79v-5.58h8.382ZM624.72,1379.7v0.7a37.509,37.509,0,0,0-3.493-2.09,6.244,6.244,0,0,1,2.794-.7,2.885,2.885,0,0,1,.7,2.09h0Zm-8.382-107.56H610.75l-1.4-4.89ZM586.3,1202.29H587l-2.1,8.38,0.7,2.09a15.629,15.629,0,0,0-4.89,2.1v-2.1h-2.1l4.191-8.38h0.7v-2.09l2.1-4.2a13.456,13.456,0,0,1,.7,4.2h0Zm-19.558,259.14H563.95l-11.176,8.38v-5.59h-8.382l2.794,2.8v2.79h-2.794l-2.794-8.38-11.176,11.18v11.17l2.794-2.79,11.176,5.59,2.794-2.8h2.794q16.764,2.1,16.764,5.59,11.166-2.79,11.177-13.97h-5.589l5.589-8.38v-13.97l-2.8,2.79h-2.794v-5.59h-2.794v8.39l5.588,5.58-2.794,2.8Zm26.543-350.65,2.1-5.59,2.095,2.8-5.588,4.19-5.588-1.4h6.985Zm-29.337-76.83v5.59h-5.588l2.794,2.79v2.79h-3.492l-0.7-1.39v1.39q-9.789.7-9.779,5.59l-13.97-2.79v-2.8l10.478-4.19v4.19h2.794l2.095-5.58Zm-34.226-65.662q0.687,5.6-2.1,20.955v30.737l2.794,25.14-2.794,27.94v2.8q0,15.375,16.764,19.56v-5.59l2.794,2.79h5.588l2.794-2.79h2.794v2.79l0.7-.7q3.487,10.485,11.176,14.67h-1.4l0.7,8.38h-2.794q0-13.965-33.528-19.55V1101H541.6v2.8l-5.588,5.59v-5.59l-2.794,2.79h-2.794l-2.794-2.79v41.91h16.764l2.794,2.79,22.352-5.59h1.4v2.8l49.594-1.4a86.164,86.164,0,0,0-1.4-15.37q-2.1-16.755-13.97-22.35h-2.794l-2.1,5.59-0.7-5.59-0.7.7-2.1-35.62-4.191-33.53-9.779,11.17h-2.1v-6.98h-1.4l-0.7-2.79q7.679-11.175,3.492-45.407l-1.4-11.176-0.7-17.463-18.86-4.191A125.418,125.418,0,0,0,540.9,964.1q-2.1-1.39-5.588-3.492l-0.7,5.588a36.538,36.538,0,0,1-4.889,2.1h0Zm47.5,73.342-0.7,2.1-0.7-.7c0.458-.46.928-0.93,1.4-1.4h0Zm8.382,156.46,4.889-9.77L587,1202.29h2.1l16.066-5.59h2.794l3.492,5.59,12.573-11.18-1.4-11.18H619.83l-2.1,5.59h-2.794q4.878-10.47,5.588-25.84l-42.608,4.19v-4.19h-2.8q-13.98,0-13.97,8.38h-2.794v-8.38h-5.588l-2.794,8.38-2.794-2.79h-2.794l-2.794,2.79H538.8l2.794-2.79v-5.59l-2.794,2.79H536.01l-2.794-2.79h-2.794l-2.794,22.35,2.794,11.18h-2.794l2.794,11.17H541.6l2.794-2.79,2.794,2.79h2.794l2.794-2.79h2.794l2.794,2.79,2.794-2.79v2.79l19.558-5.59v5.59h2.1l0.7-2.09v-14.67l-5.587-8.38v-13.97q4.189,6.285,7.683,32.82h0Zm81.724,257.05h1.4l1.4,4.19-4.889,1.4Zm-22.352,31.44,4.89,8.38a60.559,60.559,0,0,1,9.081-2.8l1.4-1.39,3.493-2.8,9.08-4.19,2.794-2.79,13.97,5.59,2.794-2.8v-5.59q0-20.25-12.573-24.44l-3.492-25.15,2.1,2.1v-5.59H681.3l11.176,5.59v-16.77l-2.794-19.56-2.794,2.8-2.794-2.8H675.71q-2.1,1.41-4.19,2.8l-0.7-4.19-6.985,5.58-9.081-3.49,2.1-2.09-8.382.69-17.462,2.1,8.381,81.72,5.588-.69v9.78Zm25.146-37.03,2.794,3.5h-2.794v-3.5Zm5.588,9.09-4.889.69-0.7-3.49h4.89Zm-30.734-83.82,22.352-2.8,8.382,2.8v-2.8l2.794,2.8H681.3q11.166-2.79,11.176-11.18,0-18.15-11.176-27.94h2.794l2.794,2.79h2.794v-5.58l-13.97-5.59-2.794,2.79h-2.794l-9.779-1.4a5.21,5.21,0,0,1-.7-2.09l-7.684.7h-1.4l-36.322,3.49-2.794-2.79,3.493,17.46q4.878,19.56,9.08,32.13,13.965-4.185,20.955-3.49v0.7Zm5.588-106.18,8.383-5.58q9.772,13.98,16.763,13.97l8.382-2.8,2.794,2.8v5.58l-2.794-2.79H678.5l-2.794,2.79-2.794-2.79h-2.794l-11.175,8.38v-5.59h5.587l-5.587-5.58-5.589,5.58v-5.58h-2.095l-2.1-8.39h1.4Zm-2.794,40.52-2.1-8.39h2.1v8.39Zm4.191,8.38h-2.1l-0.7-2.8Zm6.986,6.98h2.793q0-8.37,11.176-8.38l13.97,2.8,11.176-2.8v-41.91h-5.588v-2.79h5.588v-2.8H686.886v-8.38h5.588v5.59h2.794q0-36.315-16.764-53.09l-11.176,5.59-2.794-2.79q0,8.385-5.587,8.38t-5.589-8.38q-8.382,0-8.382,30.73l1.4,11.18L633.8,1205.08l-12.573-5.59-12.573,5.59q-8.382,0-23.05,7.68l11.176,54.49,5.588-1.4,2.794,6.29-3.493-10.48,7.684,5.59-1.4-6.29,15.367,16.76h2.794l1.4-5.58,4.191,5.58h5.588l1.4-5.58,2.794,11.17-1.4,6.29-9.779-6.29q-6.99,0-9.779,28.64l-11.176-11.18h-2.794l3.492,14.67,44.7,4.89Zm-83.122-106.87,2.794-4.89h-6.287q0,8.385-5.588,8.39l-22.352-13.97q-19.563,0-19.558,36.32v16.76H536.01l11.176-2.79,11.176,2.79h5.588l2.794-2.79h2.794l5.588,13.97h2.8l2.793-56.58a43.152,43.152,0,0,1-4.889,2.79h0Zm76.136-57.97,2.1,40.51,26.543,1.4,4.889,2.79,4.89-2.79h3.492l1.4-13.97v-22.35h-6.286l1.4,2.79v2.79l-3.493,2.8-1.4-2.8v-2.79l-1.4,2.79h-1.4l-10.477-9.78h-2.1v-1.39l-8.382-5.59v2.79l2.1,3.5ZM635.9,968.987H633.1v2.794l11.176,2.794q0-5.583-8.382-5.588h0ZM1048.71,1469.81h-5.59v-2.79h8.38Zm-8.38-248.66v2.79l-8.38,2.79v-5.58h8.38Zm-20.26-187.2,23.05,5.59h-5.59l2.8,2.79v2.79q-13.98,0-5.59,14.67l-22.35-11.87v-2.8Zm-10.48,259.84-2.79-2.79,7.68,2.79h-4.89Zm2.8-192.79h8.38v2.8l-2.1,2.09Zm25.14-8.38,2.8-2.79h0.7Zm8.39,368.81h-2.8l-11.17,8.38v-5.59h-8.39l2.8,2.8v2.79h-2.8l-2.79-8.38-11.18,11.18v11.17l2.8-2.79,11.17,5.59,2.8-2.8h2.79q16.77,2.1,16.77,5.59,11.16-2.79,11.17-13.97h-5.59l5.59-8.38v-13.97l-2.79,2.79h-2.8v-5.59h-2.79v8.39l5.59,5.58-2.8,2.8Zm94.99-67.06-2.79,2.8-2.8-2.8h-8.38q-25.14,0-25.14,16.77H1099v13.97h2.8l2.79-2.8h2.79v5.59l2.8-2.79h2.79l11.18,5.59,2.79-2.8,2.8,2.8v-5.59h2.79l11.18,5.59v-16.77Zm-81.02-8.38-5.59,5.59v2.79h5.59v-8.38Zm-44.71-2.79h-2.79v22.35q8.385,0,8.38,5.59l-2.79-2.8h-2.8l-5.59,5.59v11.18l11.18,2.79,19.56-5.59,5.59,5.59,3.49-9.78,4.89,4.19v5.59l5.59-5.59v-16.76l-11.18-2.79-2.79,2.79v-2.79l2.79-2.8v-2.79l-2.79-2.8h-2.8l-5.59,11.18h-5.58l2.79-2.79v-8.39l-2.79,2.8-8.39-2.8v-2.79h8.39v-2.79l-13.97-2.8,2.79,2.8v5.58q-5.6,0-5.59-11.17h0Zm25.15-5.59-6.29,2.09-2.09.7v2.8l13.97,5.59v-2.8Zm-30.74-203.96V1196q8.385,0,8.39,8.38l2.79-2.79h5.59l2.79,2.79h2.8l5.58-5.59,2.8,8.39h8.38v-27.94l5.59-5.59,2.79,33.53h2.8l2.79-13.97v-27.94l-2.79-2.8v-2.79l2.79-2.8-16.76,2.8v2.79h8.38v2.8h-13.97l-2.8-2.8h-2.79q-14.67,2.8-21.65-23.05l10.47,6.29,2.8,2.79,22.35-5.59,11.18,2.1-0.7-23.75-7.69-28.64,8.39-19.56v-30.73h-2.8v5.59h-2.79l8.38-44.71h5.59q0,13.98,11.17,13.97l2.8-2.79h2.79q13.965,3.5,13.97,8.38v19.56l-5.59,8.38v2.8q0,33.525,8.39,33.52a36.383,36.383,0,0,1,11.17,1.4l39.12-6.98v-16.77l-8.38-33.53v-11.17l2.79-2.8v-2.79h-2.79l2.79-2.79v-2.8q-10.485-39.108-36.32-39.115l-13.97-5.588-16.77,5.588-39.11-8.382q0,11.183-13.97,11.176-8.385,9.79-8.38,19.558L1006.8,1008.8v11.18l2.79,25.14-2.79,27.94v2.8q0,15.375,16.76,19.56l10.48-13.97-7.68,11.17h5.59l2.79-2.79,14.67-6.29-8.38,6.29h4.89l5.58,11.17-2.79,13.97h-2.79q0-13.965-9.09,3.5l-18.16-12.58-3.49,3.5v-5.59l-2.79,2.79h-2.8l-2.79-2.79,4.89,34.92,1.4,0.7Zm117.35,153.67-2.79,2.79h-2.8l-16.76-2.79h-2.79q0,25.14-8.39,25.14v2.8l2.8,19.56,22.35-2.8,8.38,2.8v-2.8l2.8,2.8h2.79c7.44-1.86,11.18-5.59,11.18-11.18q0-18.15-11.18-27.94h2.79l2.8,2.79h2.79v-5.58Zm-81.02-61.47h-2.8l-2.79,8.38h5.59v-8.38Zm-18.86-58.67q-19.575,0-9.08,26.54l-6.99,44.7h18.16l0.7-20.95,11.18,2.79h5.58l2.8-2.79h2.79l5.59,13.97h2.79l2.8-58.68H1055q0,8.385-5.59,8.39Zm34.92,115.25-7.68,20.25q-9.09-20.25-9.08-9.77h-2.8v-10.48h-5.59l-2.79,10.48-2.79-3.5h-2.8l-2.79,3.5h-2.8l2.8-3.5v-6.98l-2.8,3.49h-2.79l-2.79-3.49,3.49,37.02-9.08-8.38,2.79,13.97h-2.79l2.79,14.66h11.18l2.79-3.49,2.8,3.49h2.79l2.79-3.49h2.8l2.79,3.49,2.8-3.49v3.49l13.97-5.58-4.89-3.5,7.68,0.7-0.7-9.78,0.7-13.97v-25.14Zm40.51,149.48v-2.1h2.1Zm2.1-4.89h-2.1v-5.59H1099a18.36,18.36,0,0,1-.7,5.59h-2.09v2.09a6.2,6.2,0,0,1-2.8.7h-8.38l-2.79-2.79h-2.8l-2.79,2.79v-2.79l-16.76,5.59-0.7-2.1,0.7,23.75,2.79,0.7,2.79-2.8,19.56,2.8h17.46v-0.7q4.89-1.41,7.69-2.1l1.39-1.39,3.5-2.8,9.08-4.19,2.79-2.79,13.97,5.59,2.8-2.8v-5.59q0-25.14-19.56-25.14h-2.8v2.79h5.59v2.8l-16.76,2.79-8.38-8.38H1099q2.79,11.175,11.18,11.17l-5.59,5.59v-2.79Zm-75.44-167.64-13.27,9.08q-11.88,7.695,4.89,7.68v-5.59h2.79v5.59l2.8-2.79h2.79l8.38,2.79-4.89-9.08,24.45,11.88-7.68-23.75,4.89-15.37-48.2-1.4q27.24,9.8,22.35,14.67l-10.47-2.09v2.79h-3.5Zm217.93-338.775v5.588l2.8,11.176q-2.805,36.332-11.18,47.5l2.8,11.17h2.79v-5.59h11.18v5.59l2.79-2.79h2.79v2.79l-2.79,2.8h-2.79l-2.8-2.8,2.8,8.38v2.8l-13.97-2.8v11.18l5.58,33.53,2.8-2.8,5.59,5.59h-8.39v50.29l19.56,2.8v-5.59h2.8l2.79,2.79h2.79l2.8-2.79v8.38h2.79l2.8-2.79h2.79l5.59,5.59v2.79l-2.8,2.79v2.8h5.59v2.79h-8.38l-8.38-5.59v2.8l5.59,5.59v2.79l-2.8,2.79-11.17-2.79,5.58-8.38h-5.58v-2.8h5.58l-5.58-5.58h-5.59l2.79,2.79-11.17,11.18-8.39-5.59v36.32h11.18l2.79-2.79c0,3.73,2.8,5.58,8.39,5.58v2.8h-11.18v2.79l11.18,2.8,5.58-8.39,8.39,8.39v2.79l-19.56,5.59c-3.74,0-5.59-3.72-5.59-11.18h-2.79v19.56q-11.19,0-11.18,8.38l2.79,11.18-2.79,8.38,2.79,2.79v5.59l-8.38,44.71h2.8c0,7.92,4.64,12.57,13.97,13.97l2.79-2.8v5.59l2.79-2.79,8.39,2.79q11.16-1.4,11.17-8.38h2.8l2.79,2.79h8.38l2.8-16.76-2.8-36.32,5.59-53.09v-8.38h-5.59v2.79l2.8,2.8h-8.39q2.1-8.385,11.18-11.18l-2.79-41.91,5.58-25.15-8.38-33.52v-2.8l-13.97,5.59-8.38-8.38,16.76-2.8h2.8l2.79,2.8,5.59-22.35v-53.09l2.79-19.557-2.79-2.794h2.79q0-11.166-8.38-11.176V960.605l-19.56-5.588Zm30.74,72.645,5.59,5.59v2.79h-5.59l-2.8-2.79-5.58,5.58h-2.8v-5.58l2.8-2.8h2.79l2.79,2.8v-5.59h2.8Zm25.14,39.11h5.59l22.35-5.58v-2.8l-19.55-2.79q-4.2,0-8.39,11.17h0Zm64.27-5.58v2.79h13.97v-5.59Zm-61.47,64.26,11.17,5.59h8.39l5.58-5.59v-2.8l-19.55-2.79Zm142.49,55.88,8.38,2.79v-5.59l-2.79-2.79Zm-184.4,86.61v2.8l-2.8,2.79-2.79-2.79h-2.79l-2.8,2.79h-5.59v-5.59h16.77Zm-22.35,72.65v2.79l2.79,2.79-2.79,11.18,11.17,8.38,11.18-2.79,13.97,2.79,2.79-2.79,2.8,2.79h11.17l-5.59-25.14h2.8q0-13.965-11.18-13.97v-2.8l2.8-2.79v-2.8l-30.74,5.59v-8.38h-2.79Zm53.08,47.49-16.76,5.59-2.8-2.79h-2.79l-2.79,11.17h-8.39v-2.79l2.8-2.79-8.38,2.79-11.18-5.59v8.38q0,13.995,8.38,16.77h2.8v-5.59h5.58v5.59l2.8-2.8q13.965,0,13.97-5.58h2.79v11.17q16.77-3.48,16.77-8.38v-27.94h-2.8v2.79Zm-8.38,11.18-2.79,2.79,2.79,2.8v5.59h-2.79l-5.59-11.18h8.38Zm122.94,33.53h5.58v2.79l-2.79,2.8h5.59v-8.39h-8.38v2.8Zm-97.79,13.97v2.79l2.79,2.8v2.79h-8.38l-2.8-2.79v2.79l-8.38-2.79h-5.59v2.79l2.8,2.79q8.385,0,8.38,8.39l8.38-2.8,2.8,8.38h2.79l2.79-2.79v8.38q19.545-2.085,19.56-8.38,16.065,13.98,33.53,13.97l30.73-5.59,5.59,5.59v-5.59l2.8,2.8,16.76-5.59,2.79,2.79v2.8l-2.79,2.79h2.79q6.285,0,8.39-27.94h-2.8l-2.79,2.79-5.59-5.58h5.59v-2.8h-8.38v-2.79l2.79-2.8h-11.18v2.8h5.59v2.79h-2.79l-5.59-5.59h-2.79l-2.8,2.8v-5.59h-2.79l-13.97,2.79v5.59l2.79,2.8h-5.59l-2.79-2.8-2.79,2.8v-5.59l2.79-2.8-19.56-2.79q-36.33,0-36.32,11.18h-2.79v-2.8l5.58-8.38Zm-33.53,8.38,8.38,2.79,2.79-8.38-8.38-2.79Zm-8.38,5.59-8.39,8.38h-2.79l-2.79-2.79-5.59,5.58v2.8l8.38,2.79,8.38-2.79h2.8l2.79,2.79,2.79-2.79v5.59h2.8q0-10.485,11.17-13.97l-2.79,8.38v2.79l5.59,5.59,16.76-2.79-2.79-11.18-8.38,5.59h-2.8v-11.18l-16.76-5.59h-8.38v2.8Zm13.97,41.91q11.16,0,11.17,8.38h2.8v-2.79l-2.8-8.39h-11.17v2.8Zm-5.59,8.38-2.8,8.38v2.8h2.8l5.59-5.59v-2.8l-2.8-2.79,2.8-2.79h-8.39Zm-11.18,16.76h2.8l2.79-8.38h-5.59v8.38Zm257.75-498.03-2.1-71.243-13.97-2.794q-22.365,2.1-31.43.7,2.79,20.267-4.89,30.734l2.79,16.064v11.18l2.8,25.14-2.8,27.94v2.8q0,15.375,16.77,19.56v-5.59l2.79,2.79h5.59l2.79-2.79h2.8v2.79l2.79-2.79h5.59l5.59,11.17-2.8,13.97h-2.79q0-13.965-33.53-19.55V1101h8.38v2.8l-5.58,5.59v-5.59l-2.8,2.79h-2.79l-2.8-2.79v41.91h16.77l2.79,2.79,22.35-5.59,11.18,2.1-0.7-23.75-7.68-28.64,8.38-19.56v-30.73h-2.79v5.59h-2.8Zm46.8-71.243-7.69,75.443-2.09,11.17v2.8q0,33.525,8.38,33.52,16.77,0,16.76,8.39l11.18-5.59,2.79,8.38-5.58,13.97-2.8-2.79h-5.59c-3.73,0-5.58,3.73-5.58,11.17h-5.59c0-5.12-1.64-7.91-4.89-8.38v33.53h13.27l2.79,2.79,8.39-5.59,13.97,2.8h8.38l2.79-13.97v-67.06l-8.38-33.53v-11.17l2.79-2.8v-2.79h-2.79l2.79-2.79v-2.8q4.89-56.577-32.13-43.306Zm-132.72,50.293h-2.79v2.79l11.17,2.8q0-5.58-8.38-5.59h0Zm72.65,19.56v5.59h-5.59l2.79,2.79v2.79q-13.98,0-13.97,5.59l-13.97-2.79v-2.8Zm100.58,55.88,2.79,13.97v2.79h-5.58c-3.74,0-5.59-2.79-5.59-8.38l2.79-8.38h5.59Zm-30.73,64.26v2.79l5.58,11.18h2.8v-8.38Zm-55.88,5.59h-2.8q-13.98,0-13.97,8.38h-2.79v-8.38h-5.59l-2.79,8.38-2.8-2.79h-2.79l-2.8,2.79h-2.79l2.79-2.79v-5.59l-2.79,2.79h-2.79l-2.8-2.79h-2.79l-2.8,22.35,2.8,11.18h-2.8l2.8,11.17h11.17l2.8-2.79,2.79,2.79h2.8l2.79-2.79h2.79l2.8,2.79,2.79-2.79v2.79l19.56-5.59v5.59h2.79v-16.76l-5.58-8.38v-19.56Zm89.4,5.59h-13.97l2.8,2.79v2.79l-8.38,2.8-2.8-2.8v-2.79l-2.79,2.79h-2.8l-19.55-5.58v2.79l2.79,33.53h11.18l11.17,2.79,11.18-2.79h8.38l2.79-13.97v-22.35Zm-122.93,41.91q-19.56,0-19.56,36.32v16.76h11.18l11.17-2.79,11.18,2.79h5.59l2.79-2.79h2.79l5.59,13.97h2.8l2.79-58.68h-8.38q0,8.385-5.59,8.39Zm106.17,5.58-11.18,5.59-2.79-2.79q0,8.385-5.59,8.38t-5.59-8.38q-8.37,0-8.38,30.73l2.8,22.35h2.79l8.38-5.58q9.78,13.98,16.77,13.97l8.38-2.8,2.79,2.8v5.58l-2.79-2.79h-5.59l-2.79,2.79-2.8-2.79h-2.79l-11.18,8.38v-5.59h5.59l-5.59-5.58-5.59,5.58v-5.58H1567v36.32l11.17,11.17h2.8q0-8.37,11.17-8.38l13.97,2.8,11.18-2.8v-41.91h-5.59v-2.79h5.59v-2.8h-11.18v-8.38h5.59v5.59h2.79q0-36.315-16.76-53.09h0Zm-89.41,8.39v2.79l-8.38,2.79v-5.58h8.38Zm5.59,44.7h-2.79l-2.8,8.38h5.59v-8.38Zm8.38,13.97h-13.97q-6.99,8.385-25.14,8.38l2.79,2.8v2.79h-8.38l-2.8-2.79H1472v2.79q0,22.365,16.76,22.35v-5.59h2.8v5.59l2.79-2.79h2.8l8.38,2.79v-2.79l19.56,5.59L1519.5,1291Zm72.65,47.5-2.8,2.79h-2.79l-16.77-2.79h-2.79q0,25.14-8.38,25.14v2.8l2.79,19.56,22.35-2.8,8.39,2.8v-2.8l2.79,2.8h2.79q11.175-2.79,11.18-11.18,0-18.15-11.18-27.94h2.8l2.79,2.79h2.8v-5.58Zm-64.27,0-16.76,2.79v2.8h8.38v2.79h-13.97l-2.79-2.79h-2.8q-14.655,2.79-22.35,11.17h-2.79v22.35q8.385,0,8.38,8.39l2.79-2.8h5.59l2.8,2.8h2.79l5.59-5.59,2.79,8.38h8.38v-27.94l5.59-5.59,2.8,33.53h2.79l2.79-13.97V1335.7l-2.79-2.79v-2.8Zm-22.35,50.29-8.38,2.79v2.8l13.97,5.59v-2.8Zm-25.14,5.59h-2.8v22.35q8.385,0,8.38,5.59l-2.79-2.8h-2.79l-5.59,5.59v11.18l11.17,2.79,19.56-5.59,5.59,5.59v-5.59h8.38v5.59l5.59-5.59v-16.76l-11.18-2.79-2.79,2.79v-2.79l2.79-2.8v-2.79l-2.79-2.8h-2.79l-5.59,11.18h-5.59l2.79-2.79v-8.39l-2.79,2.8-8.38-2.8v-2.79h8.38v-2.79l-13.97-2.8,2.79,2.8v5.58c-3.73,0-5.58-3.72-5.58-11.17h0Zm44.7,2.79-5.59,5.59v2.79h5.59v-8.38Zm81.03,8.38-2.8,2.8-2.79-2.8h-8.38q-25.155,0-25.15,16.77H1567v13.97h2.79l2.79-2.8h2.8v5.59l2.79-2.79h2.8l11.17,5.59,2.8-2.8,2.79,2.8v-5.59h2.79l11.18,5.59v-16.77Zm-89.41,55.88h-2.8v8.39l5.59,5.58-5.59,5.59h-5.58v-2.79h8.38l-5.59-5.59h-2.79l-11.18,8.38v-5.59h-8.38l2.79,2.8v2.79h-2.79l-2.8-8.38-11.17,11.18v11.17l2.79-2.79,11.18,5.59,2.79-2.8h2.8q16.755,2.1,16.76,5.59,11.16-2.79,11.18-13.97h-5.59l5.59-8.38v-13.97l-2.8,2.79h-2.79v-5.59Zm53.08,16.77h-2.09v-5.59H1567a18.36,18.36,0,0,1-.7,5.59h-2.1v2.09a6.161,6.161,0,0,1-2.79.7h-8.38l-2.8-2.79h-2.79l-2.8,2.79v-2.79l-16.76,5.59-0.7-2.1,0.7,23.75,2.79,0.7,2.8-2.8,19.56,2.8h17.46v-0.7c3.25-.94,5.82-1.64,7.68-2.1l1.4-1.39,3.49-2.8,9.08-4.19,2.8-2.79,13.97,5.59,2.79-2.8v-5.59q0-25.14-19.56-25.14h-2.79v2.79h5.59v2.8l-16.77,2.79-8.38-8.38H1567q2.775,11.175,11.17,11.17l-5.59,5.59v-2.79Zm-2.09,4.89v-2.1h2.09Zm176.02-373.7,1.4,2.79-2.8,13.97h-2.79q0-13.965-9.08,3.5L1708.79,1101h8.38v2.8l-5.58,5.59v-5.59l-2.8,2.79H1706l-2.8-2.79,4.89,34.92,11.88,6.99,2.79,2.79,22.35-5.59,11.18,2.1-0.7-23.75-6.29-23.05h-2.79Zm2.79,0-1.39-5.59,8.38-19.56v-30.73h-2.79v5.59h-2.8l8.38-44.71h5.59q0,13.98,11.18,13.97l2.79-2.79h2.8q13.965,3.5,13.97,8.38v19.56l-5.59,8.38v2.8q0,33.525,8.38,33.52a36.453,36.453,0,0,1,11.18,1.4l39.11-6.98v-16.77l-8.38-33.53v-11.17l2.79-2.8v-2.79h-2.79l2.79-2.79v-2.8q-10.47-39.108-36.32-39.115l-13.97-5.588-16.76,5.588-39.12-8.382q0,11.183-13.97,11.176-8.385,9.79-8.38,19.558L1703.2,1008.8v11.18l2.8,25.14-2.8,27.94v2.8q0,15.375,16.77,19.56l10.48-13.97-7.69,11.17h5.59l2.79-2.79,14.67-6.29-11.87,9.08,2.79-2.79h5.59l4.19,8.38h2.79Zm-32.82-64.26,23.05,5.59h-5.59l2.79,2.79v2.79q-13.98,0-5.59,14.67l-22.35-11.87v-2.8Zm3.49,173.23q-19.56,0-9.08,26.54l-6.99,44.7h18.16l11.18-3.49,0.7-14.67h5.59l2.79-2.79h2.79l5.59,13.97h2.8l2.79-58.68h-8.38q0,8.385-6.29,1.4Zm16.76,13.97v2.79l-8.38,2.79v-5.58h8.38Zm5.59,44.7h-2.79l-2.8,8.38h5.59v-8.38Zm8.38,13.97-48.19-1.4q27.24,9.8,22.35,14.67l-10.48-2.09v2.79H1706l-2.8-2.79,22.36,8.38-13.28,9.08q-11.88,7.695,4.89,7.68v-5.59h2.8v5.59l2.79-2.79h2.8l8.38,2.79-4.89-9.08,24.45,11.88-7.69-23.75Zm72.65,47.5-2.8,2.79h-2.79l-16.77-2.79h-2.79q0,25.14-8.38,25.14v2.8l2.79,19.56,22.35-2.8,8.39,2.8v-2.8l2.79,2.8h2.79q11.175-2.79,11.18-11.18,0-18.15-11.18-27.94h2.8l2.79,2.79h2.8v-5.58Zm-86.62,50.29-8.38,2.79v2.8l13.97,5.59v-2.8Zm-25.14,5.59h-2.8v22.35q8.385,0,8.38,5.59l-2.79-2.8h-2.79l-5.59,5.59v11.18l11.17,2.79,19.56-5.59,5.59,5.59,3.49-9.78,4.89,4.19v5.59l5.59-5.59v-16.76l-11.18-2.79-2.79,2.79v-2.79l2.79-2.8v-2.79l-2.79-2.8h-2.79l-5.59,11.18h-5.59l2.79-2.79v-8.39l-2.79,2.8-8.38-2.8v-2.79h8.38v-2.79l-13.97-2.8,2.79,2.8v5.58c-3.73,0-5.58-3.72-5.58-11.17h0Zm44.7,2.79-10.48.7,4.89,7.68h5.59v-8.38Zm81.03,8.38-2.8,2.8-2.79-2.8h-8.38q-25.155,0-25.15,16.77h-2.79v13.97h2.79l2.79-2.8h2.8v5.59l2.79-2.79h2.8l11.17,5.59,2.8-2.8,2.79,2.8v-5.59h2.79l11.18,5.59v-16.77Zm-89.41,55.88-18.16-6.28,15.36,14.67,5.59,5.58-5.59,5.59h-5.58v-2.79h8.38l-5.59-5.59h-2.79l-11.18,8.38v-5.59h-8.38l2.79,2.8v2.79h-2.79l-2.8-8.38L1706,1472.61v11.17l2.79-2.79,11.18,5.59,2.79-2.8h2.8q16.755,2.1,16.76,5.59,11.16-2.79,11.18-13.97h-5.59l5.59-8.38v-13.97l-2.8,2.79h-2.79v-5.59Zm83.12-350.64,4.89,2.09h8.38l-10.48.7Zm-9.78,65.66-10.48,5.58-7.68,4.19h-2.1l-1.39-2.79v2.79l-2.1,2.8-6.29-2.8v-2.79l2.1-2.79h-6.98v-1.4l-40.52,7.68q-9.075-16.05-9.08-7.68h-2.79v-8.38h-5.59l-2.79,8.38-2.8-2.79h-2.79l-2.8,2.79h-2.79l2.79-2.79v-5.59l-2.79,2.79h-2.79l-2.8-2.79,3.49,28.64-9.08-6.29,2.8,11.18h-2.8l2.8,11.17h11.17l2.8-2.79,2.79,2.79h2.8l2.79-2.79h2.79l2.8,2.79,2.79-2.79v2.79l13.97-4.19-4.89-2.79,7.69,0.69,25.14,2.8,4.89-2.8,1.4,7.69h6.28l8.39,2.79,7.68-2.79,26.54,6.98-18.86,5.59-2.79-2.79q0,8.385-5.59,8.38t-5.59-8.38q-8.37,0-8.38,30.73l2.8,22.35h2.79l4.89,5.59q13.26,2.8,20.26,2.8l8.38-2.8,2.79,2.8v5.58l-2.79-2.79h-5.59l-2.79,2.79-2.8-2.79h-2.79l-11.18,8.38v-5.59h5.59l-5.59-5.58-5.59,5.58v-5.58h-5.58v36.32l11.17,11.17h2.8q0-8.37,11.17-8.38l13.97,2.8,11.18-2.8v-41.91h-5.59v-2.79h5.59v-2.8h-11.18v-8.38h5.59v5.59h2.79q0-36.315,6.99-57.28l-1.4.7v-0.7l-32.83-18.86-0.7-1.39,32.83-25.15-5.58-16.07-13.28,11.88,4.19-12.57,11.88-6.99,4.89-34.92-2.8,2.79h-2.79l-2.79-2.79v5.58l-7.69-7.68-12.57.7q-10.47-1.395-10.48,12.57h-2.79l-2.8-13.97-1.39-8.38-9.08,6.29,2.79,22.35-0.7,23.75,11.18,13.97,16.76,2.09Zm-70.55,167.64v2.79l-2.09-2.79h2.09Zm-7.68-8.39-9.08,8.39-8.38-7.69q-9.09,10.485-16.07-16.06l-3.49,34.92v22.35q8.385,0,8.38,8.39l2.79-2.8h5.59l2.8,2.8h2.79l5.59-5.59,2.79,8.38h8.38l4.19,2.79-6.28-11.87,10.48,9.08h2.79l2.79-13.97V1335.7l-2.79-2.79v-2.8l2.79-2.79-12.57,2.09Zm57.97,142.5h-2.09v-5.59h-3.49a18.36,18.36,0,0,1-.7,5.59h-2.1v2.09a6.161,6.161,0,0,1-2.79.7h-8.38l-2.8-2.79h-2.79l-2.8,2.79v-2.79l-16.76,5.59-0.7-2.1,0.7,23.75,2.79,0.7,2.8-2.8,19.56,2.8h17.46v-0.7c3.25-.94,5.82-1.64,7.68-2.1l1.4-1.39,3.49-2.8,9.08-4.19,2.8-2.79,13.97,5.59,2.79-2.8v-5.59q0-25.14-19.56-25.14h-2.79v2.79h5.59v2.8l-16.77,2.79-8.38-8.38h-2.79q2.775,11.175,11.17,11.17l-5.59,5.59v-2.79Zm-2.09,4.89v-2.1h2.09Z"/>
</svg>
